<?xml version="1.0" standalone="no"?>
<!DOCTYPE svg PUBLIC "-//W3C//DTD SVG 20010904//EN"
 "http://www.w3.org/TR/2001/REC-SVG-20010904/DTD/svg10.dtd">
<svg version="1.0" xmlns="http://www.w3.org/2000/svg"
 width="260.000000pt" height="260.000000pt" viewBox="0 0 260.000000 260.000000"
 preserveAspectRatio="xMidYMid meet">
<metadata>
Created by potrace 1.11, written by Peter Selinger 2001-2013
</metadata>
<g transform="translate(0.000000,260.000000) scale(0.100000,-0.100000)"
fill="#000000" stroke="none">
<path d="M1126 2234 c-353 -70 -622 -323 -718 -675 -32 -117 -31 -336 1 -454
26 -99 88 -229 145 -309 51 -71 160 -178 229 -225 57 -39 203 -109 244 -117
l29 -6 58 219 c32 120 63 223 69 229 7 6 116 58 242 114 313 140 298 133 289
118 -5 -7 -117 -169 -250 -360 l-242 -346 33 -4 c72 -8 224 12 317 42 148 47
247 109 363 225 135 135 207 261 252 441 27 108 24 325 -5 433 -77 283 -273
511 -534 619 -134 56 -115 74 -177 -165 -30 -114 -62 -232 -70 -261 l-16 -53
-269 -120 c-148 -65 -270 -118 -272 -116 -2 1 118 177 267 389 148 213 269
389 269 392 0 11 -186 4 -254 -10z m424 -800 c94 -130 173 -241 176 -247 3
-11 -95 -57 -493 -233 l-52 -23 -171 235 c-94 130 -173 241 -176 248 -3 7 98
57 268 133 150 67 274 123 275 123 1 0 78 -106 173 -236z"/>
</g>
</svg>
